<?xml version="1.0" encoding="UTF-8" standalone="no"?>
<!-- Created with Inkscape (http://www.inkscape.org/) -->

<svg
   width="69.727013mm"
   height="26.142086mm"
   viewBox="0 0 69.727013 26.142086"
   version="1.1"
   id="svg1"
   xml:space="preserve"
   inkscape:export-filename="logo.svg"
   inkscape:export-xdpi="96"
   inkscape:export-ydpi="96"
   xmlns:inkscape="http://www.inkscape.org/namespaces/inkscape"
   xmlns:sodipodi="http://sodipodi.sourceforge.net/DTD/sodipodi-0.dtd"
   xmlns:xlink="http://www.w3.org/1999/xlink"
   xmlns="http://www.w3.org/2000/svg"
   xmlns:svg="http://www.w3.org/2000/svg"><sodipodi:namedview
     id="namedview1"
     pagecolor="#ffffff"
     bordercolor="#000000"
     borderopacity="0.25"
     inkscape:showpageshadow="2"
     inkscape:pageopacity="0.0"
     inkscape:pagecheckerboard="0"
     inkscape:deskcolor="#d1d1d1"
     inkscape:document-units="mm"
     inkscape:zoom="1.4142136"
     inkscape:cx="347.18943"
     inkscape:cy="276.8323"
     inkscape:window-width="1366"
     inkscape:window-height="745"
     inkscape:window-x="-8"
     inkscape:window-y="-8"
     inkscape:window-maximized="1"
     inkscape:current-layer="layer1"
     inkscape:export-bgcolor="#ffffff00"
     showguides="true"
     showgrid="false"><inkscape:grid
       id="grid60"
       units="mm"
       originx="-182.73143"
       originy="-129.47846"
       spacingx="0.99999998"
       spacingy="1"
       empcolor="#0099e5"
       empopacity="0.30196078"
       color="#0099e5"
       opacity="0.14901961"
       empspacing="5"
       dotted="false"
       gridanglex="30"
       gridanglez="30"
       visible="false" /></sodipodi:namedview><defs
     id="defs1"><linearGradient
       id="linearGradient51"
       inkscape:collect="always"><stop
         style="stop-color:#ee8000;stop-opacity:1;"
         offset="0.34709889"
         id="stop51" /><stop
         style="stop-color:#2364ff;stop-opacity:1;"
         offset="0.35120964"
         id="stop52" /></linearGradient><linearGradient
       inkscape:collect="always"
       xlink:href="#linearGradient51"
       id="linearGradient52"
       x1="64.507225"
       y1="109.63444"
       x2="138.79695"
       y2="109.63444"
       gradientUnits="userSpaceOnUse"
       gradientTransform="matrix(0.91263815,0,0,1.2872003,-10.436585,-93.837275)" /><filter
       inkscape:collect="always"
       style="color-interpolation-filters:sRGB"
       id="filter69"
       x="-0.010694139"
       y="-0.03053258"
       width="1.0213883"
       height="1.0610652"><feGaussianBlur
         inkscape:collect="always"
         stdDeviation="0.30068703"
         id="feGaussianBlur69" /></filter></defs><g
     inkscape:label="Layer 1"
     inkscape:groupmode="layer"
     id="layer1"
     transform="translate(-48.347692,-34.257842)"><g
       id="g69"><path
         id="path61"
         style="display:inline;mix-blend-mode:normal;fill:#000000;fill-opacity:1;stroke:none;stroke-width:1.11989;filter:url(#filter69)"
         d="m 97.727053,40.64357 -0.818489,-0.483982 c -1.116824,-0.659489 -3.029345,-0.570325 -3.723296,0.173245 -0.856792,0.918344 -1.685153,4.003617 -1.664214,6.197747 0.01613,1.659655 0.116652,2.02064 0.859478,3.084918 1.115968,1.598905 1.823702,1.799528 3.294105,0.932959 1.123887,-0.662296 1.206809,-0.667801 1.315775,-0.0896 0.137997,0.733026 1.750317,1.18725 2.379003,0.670209 0.355322,-0.292185 0.443954,-0.138554 0.580519,1.007042 0.177406,1.488506 1.114176,3.003397 2.221666,3.592631 0.37942,0.201894 1.5352,0.347345 2.56847,0.322881 1.9652,-0.04646 2.37699,-0.288273 3.73046,-2.193148 1.23713,-1.741125 0.61568,-4.899186 -1.33338,-6.775907 -0.68885,-0.663301 -1.1574,-0.792048 -2.74349,-0.754522 -1.53775,0.03648 -1.91367,-0.06074 -1.91836,-0.495262 -0.005,-0.39874 0.2759,-0.54718 1.0684,-0.565937 1.48681,-0.03533 2.89323,-1.471021 3.24439,-3.311522 0.14391,-0.754604 0.42358,-1.576742 0.62125,-1.82745 0.46389,-0.588294 0.44917,-1.242236 -0.0406,-1.824441 -0.31119,-0.369837 -0.48612,-0.372079 -0.86381,-0.011 -0.38306,0.366609 -0.725,0.343054 -1.78828,-0.125185 -1.64945,-0.726478 -2.56919,-0.248837 -3.45116,1.793016 -0.48492,1.122553 -0.566,1.646894 -0.42525,2.745717 0.30138,2.352991 0.19512,4.178481 -0.28942,4.966348 -0.25008,0.406616 -0.53967,1.093623 -0.643529,1.526673 -0.153243,0.638829 -0.259767,0.709532 -0.564168,0.373788 -0.330243,-0.364254 -0.347637,-1.104692 -0.145931,-6.185911 0.126017,-3.174813 0.225602,-6.867176 0.22109,-8.205157 l -1.845141,-0.01619 c -0.220732,3.293498 0.48568,-1.682919 0.153865,5.477505 z M 68.246545,34.915884 c 0.01682,1.554912 -0.415982,2.185141 -1.51793,2.211212 -0.634409,0.01474 -0.888091,0.606285 -0.872669,2.0326 0.0086,0.793261 0.108266,0.868965 1.111743,0.845224 l 1.102319,-0.02583 -0.111455,4.831906 -0.111922,4.831914 0.643839,0.922469 c 0.562312,0.805659 0.846082,0.917677 2.238563,0.884728 l 1.59425,-0.03762 -0.01151,-1.059908 c -0.01073,-0.987268 -0.0818,-1.066297 -1.033627,-1.146973 -0.927502,-0.0786 -1.042531,-0.196372 -1.24096,-1.265245 -0.120276,-0.647923 -0.203484,-2.673411 -0.184774,-4.501082 l 0.03401,-3.322865 1.253708,0.06745 1.25371,0.06743 0.07882,-1.468945 c 0.0433,-0.808176 0.02909,-1.540864 -0.03186,-1.628245 -0.06095,-0.0873 -0.64664,-0.146609 -1.301509,-0.131163 l -1.19081,0.02813 0.05571,-1.713402 c 0.0013,6.67e-4 0.0028,7.08e-4 0.0044,0.0013 -1.2e-4,-0.0052 -7.4e-5,-0.011 -1.93e-4,-0.01765 -5.16e-4,-0.01412 7e-6,-0.02772 4.73e-4,-0.04156 2.38e-4,-0.01204 7.36e-4,-0.02583 0.0016,-0.03799 5.74e-4,-0.01516 0.0019,-0.03079 0.0028,-0.04578 5.9e-4,-0.0137 5.71e-4,-0.02659 0.0015,-0.04005 7.43e-4,-0.0137 0.0012,-0.02736 0.0015,-0.04088 z m -17.649892,4.474619 c -0.211799,-4.38e-4 -0.411998,0.03382 -0.568888,0.112106 -0.507199,0.25142 -0.660082,1.559092 -0.256148,2.189092 0.317238,0.494797 0.719735,14.562311 0.416871,14.569477 -0.454309,0.011 -0.521367,1.117058 -0.10741,1.772343 0.326145,0.516303 0.649863,0.608423 1.55709,0.442575 0.629956,-0.11522 1.18365,-0.259783 1.230468,-0.32125 0.04683,-0.06143 -0.09638,-0.628745 -0.318192,-1.261034 -0.22624,-0.644864 -0.412725,-2.038048 -0.424994,-3.172622 l -0.02189,-2.022712 1.417272,-0.03345 c 1.611699,-0.03814 2.330058,-0.600142 3.331479,-2.60821 0.469797,-0.942045 0.678231,-1.860727 0.741781,-3.267098 0.07642,-1.691473 10e-4,-2.119858 -0.557231,-3.16738 -0.950571,-1.783757 -2.503265,-2.74382 -3.918849,-2.422596 -0.734131,0.166581 -1.137433,0.123711 -1.140093,-0.12232 -0.0039,-0.373258 -0.745871,-0.685533 -1.381276,-0.686785 z m 10.555816,-0.0042 c -0.798381,0.02317 -1.538482,0.303811 -1.884975,0.833048 -1.256174,1.918713 -1.715131,5.657171 -1.065799,8.686241 0.354398,1.653226 0.799839,2.28181 2.08187,2.941247 1.113707,0.572858 2.284721,0.369114 3.566627,-0.621546 0.496105,-0.383376 1.051656,-0.61665 1.234532,-0.51776 0.182871,0.09888 0.473509,-0.07955 0.645756,-0.396834 0.386535,-0.711863 -0.07074,-2.14045 -0.947597,-2.961023 -0.508128,-0.475523 -0.608475,-0.462068 -1.044449,0.140901 -0.265341,0.366837 -0.426474,0.872698 -0.358077,1.12428 0.06841,0.251536 -0.197093,0.807248 -0.590053,1.235357 -1.391554,1.516021 -3.048746,-0.06674 -3.369252,-3.218401 l -0.146958,-1.443914 2.690254,0.1884 c 2.588669,0.180864 2.700289,0.158568 2.961627,-0.592431 0.392755,-1.1286 -0.470169,-3.751956 -1.540595,-4.682994 -0.577924,-0.50267 -1.434531,-0.737457 -2.232917,-0.714506 z m 51.153001,-1.210294 c -0.79839,0.02317 -1.53848,0.303809 -1.88497,0.83306 -1.25619,1.918714 -1.71514,5.657169 -1.06581,8.686242 0.35441,1.653226 0.79984,2.281809 2.08187,2.941244 1.11371,0.572859 2.28472,0.369117 3.56663,-0.621543 0.49613,-0.383377 1.05165,-0.61665 1.23453,-0.517763 0.18288,0.09888 0.4735,-0.07955 0.64575,-0.396833 0.38655,-0.711862 -0.0708,-2.14045 -0.94758,-2.961023 -0.50813,-0.475524 -0.60848,-0.462067 -1.04445,0.1409 -0.26534,0.366835 -0.42649,0.8727 -0.35808,1.12428 0.0685,0.251536 -0.19755,0.807249 -0.59054,1.235372 -1.39151,1.516019 -3.04826,-0.06687 -3.36876,-3.218417 l -0.14702,-1.443912 2.69025,0.1884 c 2.58868,0.180864 2.70028,0.158567 2.96163,-0.592433 0.39276,-1.128598 -0.47017,-3.751954 -1.54061,-4.682993 -0.57794,-0.502672 -1.43453,-0.737456 -2.23292,-0.714516 z m -37.532864,0.95697 c -0.1748,0.0014 -0.400849,0.02317 -0.693236,0.05437 l -1.277654,0.138658 -0.06105,1.353083 c -0.05591,1.240399 -0.0092,1.351859 0.562677,1.338336 0.621915,-0.01474 0.623815,-0.0052 0.658,3.156537 0.01925,1.786848 -0.07852,3.343584 -0.224129,3.566016 -0.142135,0.217068 -0.217417,0.859278 -0.167304,1.427401 0.08804,0.997968 0.136488,1.031614 1.430835,1.00098 1.275167,-0.03037 1.34295,-0.07818 1.405302,-1.008256 0.04303,-0.641876 -0.109184,-1.191415 -0.443697,-1.601599 -1.728673,-2.119636 1.119733,-7.786041 2.586063,-5.531079 0.611866,0.940873 0.670041,2.387234 0.195589,4.841539 -0.369611,1.911972 -0.433311,3.489423 -0.156914,3.885443 0.196274,0.281205 3.037708,-0.172 3.269802,-0.521581 0.08407,-0.126658 0.22367,-0.596913 0.309926,-1.044989 0.134201,-0.697248 0.0664,-0.812549 -0.468815,-0.799883 l -0.625141,0.01474 -0.03695,-3.333157 c -0.04281,-3.874982 -0.470806,-5.281789 -1.899672,-6.24861 -0.859067,-0.581262 -1.703715,-0.447707 -3.338726,0.529546 -0.323102,0.193154 -0.425644,0.06849 -0.432057,-0.524804 -0.0058,-0.534164 -0.06845,-0.697913 -0.592816,-0.692756 z m 8.404799,-0.141107 c -1.168973,0.138658 -1.789479,1.813072 -0.620342,2.439174 0.558449,0.299061 0.600187,0.490876 0.610527,2.814133 0.01369,3.105324 0.402738,4.812514 1.359828,5.965696 0.896577,1.080285 1.393123,1.10325 2.704346,0.12751 0.5503,-0.409503 1.0217,-0.745055 1.047905,-0.745669 0.02625,-6.29e-4 0.10853,0.321816 0.182871,0.716549 0.116543,0.618626 0.340174,0.712812 1.619646,0.682535 l 1.484343,-0.03533 -0.01369,-1.261198 c -0.01229,-1.123711 -0.08389,-1.259538 -0.658276,-1.245956 l -0.64465,0.01516 0.113649,-4.057584 c 0.06251,-2.231679 0.02947,-4.234843 -0.07339,-4.451622 -0.10279,-0.216784 -0.591026,-0.494227 -1.084523,-0.616364 -1.059082,-0.262134 -1.064108,-0.246826 -1.258215,3.873479 -0.106041,2.25131 -0.250381,3.021227 -0.729791,3.891951 -0.328682,0.596982 -0.784908,1.090023 -1.01415,1.095443 -0.830651,0.01972 -1.009812,-0.748544 -1.050453,-4.50804 -0.04308,-3.985298 -0.14184,-4.304331 -1.444677,-4.657823 -0.185768,-0.05041 -0.364058,-0.06209 -0.531055,-0.04235 z m 20.575105,0.544514 c 0.32304,-0.05584 0.65874,0.11086 1.04229,0.494868 0.75577,0.756755 0.69614,1.712571 -0.1773,2.835597 -0.8041,1.033864 -1.47816,1.224367 -1.85975,0.526223 -0.56012,-1.024874 -0.54974,-2.130166 0.0288,-3.013694 0.33263,-0.508078 0.64293,-0.787053 0.96594,-0.842994 z M 61.580048,41.21358 c 0.499749,-0.01204 1.879115,1.617728 1.885709,2.227813 0.0026,0.253854 -0.07276,0.260804 -0.730209,0.06797 -0.201647,-0.05913 -0.991749,-0.193777 -1.755889,-0.29986 -0.997212,-0.138472 -1.356572,-0.326529 -1.273014,-0.664721 0.147892,-0.598535 1.155007,-1.314181 1.873403,-1.331184 z m 51.153012,-1.210286 c 0.49969,-0.01204 1.87912,1.61773 1.88571,2.227814 0.003,0.253853 -0.0728,0.260808 -0.73021,0.06797 -0.20166,-0.05912 -0.99176,-0.193777 -1.75592,-0.299897 -0.99717,-0.138472 -1.35655,-0.32649 -1.27299,-0.664704 0.14795,-0.598537 1.155,-1.314183 1.87341,-1.331186 z m -59.089991,2.851782 c 0.98603,-0.03762 1.701033,1.014672 1.929929,2.84064 0.211003,1.683231 -0.097,2.639962 -1.097167,3.407872 -0.955793,0.733847 -1.411329,0.748804 -2.092173,0.06703 -0.491655,-0.492289 -0.52669,-0.74514 -0.411793,-2.963871 0.140066,-2.704917 0.439195,-3.304513 1.671201,-3.35174 z m 41.346719,-0.629694 c 0.760055,-0.01785 1.471306,0.195334 1.822333,0.546815 0.500475,0.501119 0.561462,0.792841 0.467633,2.230404 -0.149042,2.284097 -1.161272,3.683929 -2.689394,3.720083 -0.945269,0.0224 -1.133377,-0.104487 -1.452527,-0.982869 -0.387448,-1.066227 -0.287895,-2.545444 0.302208,-4.486547 0.273022,-0.898051 0.428599,-1.00135 1.549747,-1.027886 z m 8.826852,6.279007 c 2.04009,-0.04823 3.25797,0.798629 3.70159,2.573452 0.22514,0.90077 0.16812,1.125914 -0.52627,2.073706 -0.66072,0.901847 -0.97262,1.062275 -2.05434,1.057386 -0.70147,-0.0027 -1.52094,-0.105421 -1.82078,-0.22722 -0.99289,-0.403415 -1.54285,-1.370904 -1.55767,-2.740349 -0.0255,-2.356029 0.24908,-2.689461 2.25747,-2.736975 z"
         sodipodi:nodetypes="ccccsccsssssssssssccsssssscccccssscccsscssssccccssccccccccccccssssssscsssssscccssssscscsscccsscccssssscscsccccssccscccssssssccsssssccssssssscssssscssccssssssssscssscccssssssssssssssssssssssssscsssssssss"
         transform="matrix(1.0086507,0,0,1.0424032,-0.68737381,-1.3863392)" /><path
         id="path3"
         style="display:inline;fill:url(#linearGradient52);fill-opacity:1;stroke:#241c1c;stroke-width:1.08386"
         d="m 96.653947,41.553935 -0.811271,-0.457367 c -1.106976,-0.623223 -3.002632,-0.538963 -3.690453,0.163716 -0.849253,0.867844 -1.670308,3.783456 -1.649553,5.856931 0.01599,1.568389 0.115625,1.909523 0.851901,2.915275 1.10613,1.510981 1.807625,1.700572 3.265053,0.881656 1.113977,-0.625876 1.196184,-0.631079 1.304169,-0.08468 0.136908,0.692716 1.7349,1.121961 2.358047,0.633354 0.352179,-0.276119 0.440033,-0.130936 0.575385,0.951664 0.175849,1.406651 1.104362,2.838237 2.202085,3.395069 0.37607,0.190787 1.52168,0.328246 2.54581,0.305127 1.94788,-0.04391 2.35604,-0.272421 3.69759,-2.072545 1.22621,-1.645381 0.61024,-4.629778 -1.32164,-6.403297 -0.68278,-0.626827 -1.14719,-0.748493 -2.71929,-0.71303 -1.52419,0.03446 -1.8968,-0.0574 -1.90145,-0.468029 -0.005,-0.376813 0.27347,-0.51709 1.05898,-0.534815 1.4737,-0.03338 2.86772,-1.390129 3.21579,-3.129418 0.14266,-0.713109 0.41984,-1.490038 0.61577,-1.726959 0.45979,-0.555943 0.44522,-1.173926 -0.0403,-1.724114 -0.30845,-0.3495 -0.48182,-0.351617 -0.8562,-0.01038 -0.37967,0.346448 -0.71861,0.324189 -1.77251,-0.118292 -1.63491,-0.68653 -2.54654,-0.235155 -3.42074,1.694416 -0.480624,1.060822 -0.560994,1.556329 -0.421489,2.594728 0.298719,2.223599 0.193398,3.948705 -0.286883,4.693245 -0.24785,0.384258 -0.534889,1.033485 -0.63785,1.442721 -0.151843,0.6037 -0.257464,0.670515 -0.559174,0.353233 -0.327333,-0.344223 -0.344571,-1.043944 -0.144686,-5.845743 0.124928,-3.000229 0.223595,-6.489548 0.21913,-7.753952 L 96.5013,36.377089 c -0.218788,3.112386 0.481401,-1.590376 0.152621,5.176293 z M 67.43338,36.141219 c 0.01666,1.469406 -0.412316,2.064978 -1.504548,2.089617 -0.628815,0.01391 -0.880259,0.572943 -0.864974,1.920826 0.0086,0.749639 0.107317,0.821179 1.101941,0.798743 l 1.092599,-0.02441 -0.110475,4.566199 -0.110942,4.566203 0.638162,0.871743 c 0.557354,0.761354 0.838623,0.867213 2.218825,0.836076 l 1.580194,-0.03554 -0.01136,-1.001624 c -0.01058,-0.932977 -0.08109,-1.007658 -1.024514,-1.083899 -0.919325,-0.07428 -1.033339,-0.185576 -1.230018,-1.195668 -0.119219,-0.612295 -0.20169,-2.526399 -0.183145,-4.253565 l 0.03371,-3.140139 1.242655,0.06374 1.242655,0.06371 0.07811,-1.388166 c 0.04292,-0.763735 0.02884,-1.456132 -0.03158,-1.538706 -0.06043,-0.0825 -0.640939,-0.138554 -1.290033,-0.12396 l -1.18031,0.02657 0.05521,-1.619181 c 0.0013,6.31e-4 0.0028,6.71e-4 0.0044,0.0012 -1.18e-4,-0.005 -7.3e-5,-0.01038 -1.91e-4,-0.01661 -5.12e-4,-0.01329 6e-6,-0.0262 4.7e-4,-0.03928 2.35e-4,-0.01142 7.28e-4,-0.02441 0.0016,-0.0359 5.68e-4,-0.01432 0.0019,-0.02909 0.0028,-0.04326 5.84e-4,-0.01287 5.65e-4,-0.02512 0.0015,-0.03785 7.37e-4,-0.01287 0.0012,-0.02585 0.0015,-0.03863 z m -17.494269,4.228557 c -0.209932,-4.13e-4 -0.408366,0.03195 -0.563873,0.10594 -0.502726,0.237594 -0.654261,1.473357 -0.253889,2.068711 0.314441,0.467589 0.71339,13.761523 0.413195,13.768295 -0.450303,0.01038 -0.51677,1.05563 -0.106461,1.674879 0.32327,0.487911 0.644133,0.574966 1.543361,0.418238 0.624401,-0.108888 1.173214,-0.245495 1.219619,-0.303583 0.04641,-0.05805 -0.09552,-0.594171 -0.315387,-1.19169 -0.224245,-0.609401 -0.409086,-1.925973 -0.421246,-2.998157 l -0.0217,-1.911482 1.404775,-0.0316 c 1.597489,-0.03604 2.309514,-0.567141 3.302105,-2.464782 0.465655,-0.890242 0.672251,-1.758406 0.73524,-3.087441 0.07575,-1.598456 10e-4,-2.003284 -0.552317,-2.993203 -0.942189,-1.685666 -2.481192,-2.592936 -3.884296,-2.289376 -0.727657,0.157425 -1.127403,0.116901 -1.13004,-0.115594 -0.0039,-0.352732 -0.739294,-0.647834 -1.369097,-0.649018 z m 10.462742,-0.0039 c -0.791342,0.0219 -1.524917,0.287103 -1.868355,0.787238 -1.245096,1.8132 -1.700008,5.346079 -1.0564,8.208579 0.351272,1.562315 0.792786,2.156332 2.063513,2.779505 1.103887,0.541357 2.264576,0.348817 3.535179,-0.587366 0.49173,-0.362294 1.042383,-0.58274 1.223646,-0.489287 0.181259,0.09344 0.469335,-0.07517 0.640062,-0.375013 0.383128,-0.672717 -0.07012,-2.022745 -0.939241,-2.798195 -0.503647,-0.449374 -0.60311,-0.436658 -1.035241,0.133157 -0.263001,0.346664 -0.422713,0.824708 -0.354918,1.062455 0.0678,0.237704 -0.195355,0.762857 -0.584851,1.167424 -1.379285,1.432656 -3.021865,-0.06307 -3.339545,-3.041419 l -0.145666,-1.364512 2.666533,0.17804 c 2.565844,0.17092 2.67648,0.149848 2.935513,-0.559854 0.389293,-1.066537 -0.466022,-3.545633 -1.527011,-4.425473 -0.572827,-0.475027 -1.421883,-0.696903 -2.213229,-0.675215 z m 50.701977,-1.143741 c -0.79135,0.0219 -1.52492,0.287103 -1.86836,0.787251 -1.24509,1.813201 -1.7,5.346077 -1.05641,8.208579 0.35128,1.562315 0.79279,2.156332 2.06352,2.779505 1.10388,0.541357 2.26458,0.348817 3.53518,-0.587366 0.49174,-0.362294 1.04238,-0.58274 1.22364,-0.489289 0.18126,0.09344 0.46933,-0.07517 0.64006,-0.375013 0.38314,-0.672715 -0.0702,-2.022745 -0.93924,-2.798193 -0.50364,-0.449374 -0.6031,-0.436658 -1.03523,0.133157 -0.26299,0.346664 -0.42272,0.82471 -0.35492,1.062455 0.0678,0.237704 -0.19581,0.762859 -0.58533,1.167439 -1.37925,1.432653 -3.02139,-0.0632 -3.33907,-3.041434 l -0.14562,-1.364512 2.66654,0.17804 c 2.56585,0.17092 2.67647,0.149848 2.93552,-0.559854 0.38928,-1.066537 -0.46603,-3.545633 -1.52702,-4.425473 -0.57283,-0.475029 -1.42188,-0.696903 -2.21323,-0.675225 z m -37.201933,0.904347 c -0.173258,0.0013 -0.397315,0.0219 -0.687123,0.05138 l -1.266389,0.131039 -0.0605,1.278679 c -0.05542,1.172188 -0.009,1.277518 0.557716,1.264738 0.616433,-0.01391 0.618316,-0.005 0.652199,2.982958 0.01907,1.688589 -0.07782,3.159717 -0.222153,3.369918 -0.140875,0.205133 -0.215499,0.812028 -0.165828,1.348908 0.08726,0.94309 0.13529,0.974885 1.418218,0.945936 1.263923,-0.02871 1.331109,-0.07389 1.392912,-0.952811 0.04266,-0.60658 -0.108219,-1.125899 -0.439786,-1.513528 -1.71343,-2.003075 1.10986,-7.357882 2.563261,-5.226921 0.606471,0.889133 0.664134,2.255958 0.193865,4.5753 -0.366353,1.806831 -0.42949,3.297537 -0.155531,3.67178 0.194543,0.265742 3.010925,-0.162533 3.240972,-0.492898 0.08333,-0.119684 0.221698,-0.56409 0.307194,-0.987526 0.133018,-0.658905 0.06581,-0.767866 -0.464682,-0.755896 l -0.619629,0.01391 -0.03662,-3.149867 c -0.04244,-3.661894 -0.466656,-4.991339 -1.882923,-5.904995 -0.851492,-0.549298 -1.688693,-0.423087 -3.309286,0.500427 -0.320254,0.182525 -0.421892,0.06473 -0.428249,-0.495945 -0.0058,-0.50479 -0.06785,-0.659535 -0.587589,-0.65466 z m 8.330692,-0.133343 c -1.158666,0.131039 -1.7737,1.71337 -0.614873,2.305044 0.553526,0.282614 0.594897,0.463881 0.605144,2.659381 0.01354,2.93456 0.399187,4.547872 1.347838,5.63764 0.888672,1.020878 1.380841,1.042581 2.680502,0.120493 0.545447,-0.386985 1.012691,-0.704085 1.038665,-0.704666 0.02601,-5.94e-4 0.107565,0.30412 0.181259,0.677146 0.115516,0.584608 0.337174,0.673614 1.605366,0.645002 l 1.471254,-0.03338 -0.01353,-1.191845 c -0.01214,-1.061917 -0.08314,-1.190274 -0.652472,-1.17744 l -0.638965,0.01432 0.112653,-3.834453 c 0.06197,-2.108959 0.0292,-4.001968 -0.07273,-4.206825 -0.101887,-0.204863 -0.585815,-0.467049 -1.074961,-0.582471 -1.049744,-0.24772 -1.054725,-0.233252 -1.247121,3.660474 -0.105108,2.12751 -0.248173,2.855089 -0.723356,3.677931 -0.325784,0.564153 -0.777988,1.030082 -1.005208,1.035205 -0.823328,0.01868 -1.000908,-0.707383 -1.041191,-4.260142 -0.04271,-3.766143 -0.140595,-4.067633 -1.431939,-4.401685 -0.184129,-0.04765 -0.360848,-0.05869 -0.526372,-0.04003 z m 20.393701,0.514571 c 0.32018,-0.05277 0.65293,0.104757 1.03309,0.467656 0.74912,0.715141 0.69,1.618396 -0.17574,2.679666 -0.79702,0.97701 -1.46514,1.157038 -1.84335,0.497285 -0.55519,-0.968515 -0.54491,-2.013028 0.0286,-2.847968 0.3297,-0.480139 0.63726,-0.743775 0.95743,-0.796639 z m -41.800627,1.584919 c 0.495342,-0.01142 1.862545,1.528767 1.869082,2.105304 0.0026,0.239894 -0.07212,0.246463 -0.723771,0.06423 -0.199869,-0.05587 -0.983004,-0.183127 -1.740407,-0.28337 -0.988419,-0.130853 -1.344611,-0.308574 -1.26179,-0.628168 0.146585,-0.565622 1.144823,-1.241914 1.856886,-1.257981 z m 50.701967,-1.143731 c 0.4953,-0.01142 1.86255,1.52877 1.86909,2.105305 0.003,0.239894 -0.0722,0.246465 -0.72376,0.06423 -0.19987,-0.05587 -0.98303,-0.183127 -1.74042,-0.283406 -0.9884,-0.130852 -1.34462,-0.308536 -1.26179,-0.628151 0.14655,-0.565624 1.14482,-1.241916 1.85688,-1.257981 z m -58.568963,2.694961 c 0.977335,-0.03554 1.686034,0.958874 1.912911,2.684431 0.209142,1.590669 -0.09615,2.494789 -1.087492,3.220471 -0.947367,0.693492 -1.398885,0.707628 -2.073727,0.06334 -0.48732,-0.465218 -0.522046,-0.704163 -0.408162,-2.800886 0.138837,-2.556171 0.435323,-3.122795 1.656467,-3.167426 z m 40.98216,-0.595068 c 0.75335,-0.01682 1.458315,0.184601 1.806262,0.516745 0.496057,0.473562 0.556499,0.749243 0.46351,2.107755 -0.147798,2.158493 -1.151035,3.481347 -2.665684,3.515512 -0.93693,0.02118 -1.123389,-0.09874 -1.439723,-0.928821 -0.384032,-1.007594 -0.285359,-2.405468 0.299548,-4.23983 0.27061,-0.848665 0.424818,-0.946284 1.536087,-0.971361 z m 8.749013,5.933721 c 2.02211,-0.04557 3.22923,0.754713 3.66896,2.431938 0.22316,0.851235 0.16663,1.063998 -0.52164,1.959671 -0.65488,0.852255 -0.96404,1.003859 -2.03623,0.99924 -0.69528,-0.0025 -1.50751,-0.09963 -1.80471,-0.214726 -0.98413,-0.38123 -1.52926,-1.295517 -1.54393,-2.589656 -0.0252,-2.226468 0.24687,-2.541564 2.23755,-2.586467 z"
         sodipodi:nodetypes="ccccsccsssssssssssccsssssscccccssscccsscssssccccssccccccccccccssssssscsssssscccssssscscsscccsscccssssscscsccccssccscccssssssccsssssccssssssscssssscssccssssssssscssscccssssssssssssssssssssssssscsssssssss" /><path
         style="display:inline;fill:#ffffff;stroke:none;stroke-width:0.183714"
         d="m 74.871282,36.833886 1.138841,0.05032"
         id="path16"
         sodipodi:nodetypes="cc" /></g></g></svg>
