<?xml version="1.0" encoding="UTF-8" standalone="no"?>
<!-- Created with Inkscape (http://www.inkscape.org/) -->

<svg
   width="99.582474mm"
   height="11.53699mm"
   viewBox="0 0 99.582474 11.53699"
   version="1.1"
   id="svg1"
   xml:space="preserve"
   inkscape:export-filename="logo.svg"
   inkscape:export-xdpi="96"
   inkscape:export-ydpi="96"
   xmlns:inkscape="http://www.inkscape.org/namespaces/inkscape"
   xmlns:sodipodi="http://sodipodi.sourceforge.net/DTD/sodipodi-0.dtd"
   xmlns="http://www.w3.org/2000/svg"
   xmlns:svg="http://www.w3.org/2000/svg"><sodipodi:namedview
     id="namedview1"
     pagecolor="#ffffff"
     bordercolor="#000000"
     borderopacity="0.25"
     inkscape:showpageshadow="2"
     inkscape:pageopacity="0.0"
     inkscape:pagecheckerboard="0"
     inkscape:deskcolor="#d1d1d1"
     inkscape:document-units="mm"
     inkscape:zoom="1.4142136"
     inkscape:cx="347.18943"
     inkscape:cy="276.8323"
     inkscape:window-width="1366"
     inkscape:window-height="745"
     inkscape:window-x="-8"
     inkscape:window-y="-8"
     inkscape:window-maximized="1"
     inkscape:current-layer="layer1"
     inkscape:export-bgcolor="#ffffff00"
     showguides="true"
     showgrid="false"><inkscape:grid
       id="grid60"
       units="mm"
       originx="-255.73324"
       originy="-721.42226"
       spacingx="0.99999998"
       spacingy="1"
       empcolor="#0099e5"
       empopacity="0.30196078"
       color="#0099e5"
       opacity="0.14901961"
       empspacing="5"
       dotted="false"
       gridanglex="30"
       gridanglez="30"
       visible="false" /></sodipodi:namedview><defs
     id="defs1" /><g
     inkscape:label="Layer 1"
     inkscape:groupmode="layer"
     id="layer1"
     transform="translate(-67.662752,-190.87631)"><path
       style="fill:#ff4500;fill-opacity:1;stroke:none"
       d="m 67.761902,201.82166 h 0.79375 V 191.7675 c 2.171254,0 5.844175,-0.70782 7.672916,0.61736 1.941042,1.40655 1.638351,4.35795 -0.264583,5.64444 -1.286907,0.87002 -3.033778,0.61736 -4.497917,0.61736 v 0.52917 c 1.235454,0 2.501808,0.1075 3.704167,-0.17639 2.959053,-0.69866 4.160286,-4.72289 1.807986,-6.87917 -1.551037,-1.42178 -3.838011,-1.14652 -5.776736,-1.14652 -0.74638,0 -2.824584,-0.36175 -3.307292,0.30868 -0.427103,0.5932 -0.132291,2.15861 -0.132291,2.86632 v 7.67291 m 29.368753,0 h 0.52916 V 191.7675 c 1.93994,0 5.755135,-0.7264 7.408335,0.35277 2.28485,1.49151 2.43234,4.55838 0,5.99723 -1.27097,0.75184 -2.81739,0.52916 -4.23334,0.52916 v 0.52917 c 1.20115,0 2.54817,0.17683 3.70417,-0.17639 3.29691,-1.00739 4.07629,-5.43828 1.05833,-7.40833 -1.39137,-0.90826 -3.44941,-0.61736 -5.02708,-0.61736 -0.746375,0 -2.824575,-0.36175 -3.307285,0.30868 -0.42711,0.5932 -0.13229,2.15861 -0.13229,2.86632 v 7.67291 m -28.31042,-9.78958 v 9.78958 h 0.529167 v -9.26041 c 1.835434,0 4.821147,-0.57706 6.35,0.61736 1.586193,1.23921 1.093939,3.66608 -0.79375,4.32153 -0.984951,0.34199 -2.404014,0.0882 -3.439584,0.0882 v 0.52917 c 1.1841,0 2.84442,0.3022 3.96875,-0.0882 2.112,-0.73333 2.498375,-4.04812 0.79375,-5.37986 -1.694914,-1.32415 -5.359357,-0.61736 -7.408333,-0.61736 m 29.36875,0 v 9.78958 h 0.52917 v -9.26041 c 1.600185,0 4.444425,-0.54571 5.820825,0.35277 1.68613,1.10068 1.91738,3.82849 -0.26458,4.58612 -0.98496,0.34199 -2.40402,0.0882 -3.43959,0.0882 v 0.52917 c 1.30224,0 3.0502,0.30861 4.23334,-0.30868 2.12211,-1.10719 1.84117,-4.20516 0,-5.42396 -1.54645,-1.02371 -5.06328,-0.35278 -6.879165,-0.35278 m 24.870825,0.0882 c -6.40464,1.51221 -3.96155,11.63997 2.38125,10.14237 6.71846,-1.58631 4.32123,-11.7249 -2.38125,-10.14237 m 7.40834,9.70139 h 0.52916 c 0,-3.27998 -1.03999,-9.84634 4.23334,-9.26041 0.76702,0.0852 1.41453,0.53507 2.11666,0.79375 v 0.26458 c -0.7459,-0.2748 -1.5583,-0.70393 -2.38125,-0.74965 -4.83078,-0.26838 -3.70416,5.85605 -3.70416,8.95173 h 0.52916 c 0,-1.91926 -0.62607,-5.19011 0.39688,-6.87916 1.17475,-1.93971 4.46582,-1.8259 5.42396,0.26458 0.81126,1.77003 0.26458,4.69307 0.26458,6.61458 h 0.52917 l -0.52917,-7.67291 h 0.26458 l 0.52917,7.67291 h 0.52917 c 0,-1.26368 -0.65865,-5.5167 0.52916,-6.2177 2.57165,-1.51769 1.85209,5.06232 1.85209,6.2177 h 0.52916 c 0,-2.82782 1.19605,-7.63562 -2.91041,-6.87916 v -0.26459 c 4.29614,-1.24361 3.175,4.48754 3.175,7.14375 h 0.52916 c 0,-3.87935 1.13608,-8.66202 -4.23333,-7.67291 v -0.26459 c 5.55393,-1.60771 4.7625,4.29144 4.7625,7.9375 h 0.52917 c 0,-3.18266 1.14017,-8.6973 -3.43959,-8.95173 -0.77361,-0.043 -1.62088,0.345 -2.38125,0.48507 v -0.26459 c 6.54258,-2.06607 6.08542,4.16785 6.08542,8.73125 h 0.52917 c 0,-2.2805 0.77055,-6.28675 -0.61737,-8.20208 -1.85432,-2.55896 -4.22371,-0.97014 -6.52638,-0.97014 -2.30267,0 -4.67207,-1.58882 -6.52639,0.97014 -1.38792,1.91532 -0.61736,5.92159 -0.61736,8.20208 m 25.66458,-3.175 v 0.52917 h -4.49792 c 0.52337,1.42739 5.02709,1.74909 5.02709,-0.26458 0,-1.41751 -2.05178,-0.97486 -2.91042,-1.05834 -2.148,-0.20883 -3.22991,-1.68646 -2.64583,-3.70416 h 0.26458 c -1.2371,4.27358 3.10351,2.17157 5.02708,3.74826 2.21921,1.81902 -1.73117,2.65087 -2.91041,2.60174 -1.00199,-0.0418 -1.70488,-0.72727 -2.64584,-0.52917 1.31103,1.54941 7.00739,2.04342 6.83508,-1.05833 -0.16374,-2.94722 -3.74018,-1.36245 -5.24758,-2.46945 -2.02267,-1.4854 0.96595,-2.95025 2.38125,-2.73403 1.08562,0.16586 2.17419,0.91626 3.175,0.70556 -1.60134,-1.8925 -4.74316,-1.44653 -6.61458,-0.26458 1.84366,-2.59789 4.84216,-0.74913 7.14375,-0.26459 -0.82067,-2.31283 -6.12828,-2.04938 -7.58472,-0.48507 -1.29446,1.39036 -0.69916,3.88831 0.97014,4.63021 1.34406,0.59736 2.84562,0.21566 4.23333,0.61736 m -76.993745,-6.08541 v 9.26041 h 0.529167 v -9.26041 h -0.529167 m 1.058333,0 v 9.26041 h 0.529167 v -9.26041 h -0.529167 m 0.793751,0 v 9.26041 h 0.529166 v -9.26041 h -0.529166 m 1.058333,0 v 9.26041 h 5.027083 v -0.26458 l -4.497916,-0.26458 v -0.26459 l 4.497916,-0.26458 v -0.26458 h -4.497916 v -0.52917 h 4.497916 v -0.26458 l -4.497916,-0.26459 v -1.05833 h 4.233326 v -0.52917 h -4.233326 v -0.52916 h 4.233326 v -0.26459 l -4.233326,-0.26458 v -0.26458 h 4.233326 v -0.52917 h -4.233326 v -1.05833 l 4.497916,-0.26459 v -0.26458 h -4.497916 v -0.52917 h 4.497916 v -0.26458 l -4.497916,-0.26458 v -0.26459 l 4.497916,-0.26458 -5.027083,-0.26458 m 5.820833,0 v 0.52916 h 6.87917 v -0.52916 h -6.87917 m 20.637495,0 v 9.26041 h 0.52917 v -8.73125 c 1.88359,0 5.53632,-0.69651 7.14375,0.35278 2.03549,1.32872 2.15367,4.04954 0,5.33577 -1.17506,0.70176 -2.92159,0.39687 -4.23334,0.39687 v 0.52917 l 2.64584,2.11666 -0.52917,-2.11666 h 0.26458 l 1.32292,2.11666 -0.26458,-1.05833 h 0.26458 l 0.79375,1.05833 -0.52917,-2.11666 h 0.26459 l 1.32291,2.11666 c -0.14245,-0.67664 -0.84504,-1.69818 -0.61736,-2.38125 0.42766,-1.28298 1.76433,-1.84411 1.6757,-3.43958 -0.26194,-4.71479 -6.90514,-3.43958 -10.05417,-3.43958 m 15.08125,0.0441 c 5.76504,-0.96083 7.44703,7.8071 1.85208,9.12813 -5.96763,1.40902 -7.86864,-8.12537 -1.85208,-9.12813 m 22.225,-0.0441 v 9.26041 h 0.79375 v -9.26041 h -0.79375 m 1.05833,0 v 9.26041 h 0.52917 v -9.26041 h -0.52917 m 0.79375,0 v 9.26041 h 0.79375 v -9.26041 h -0.79375 m 1.05834,0 v 9.26041 h 0.52916 v -9.26041 h -0.52916 m 10.58333,0 v 9.26041 h 0.79375 v -9.26041 h -0.79375 m 1.05833,0 v 9.26041 h 0.52917 v -9.26041 h -0.52917 m 0.79375,0 v 9.26041 h 0.79375 v -9.26041 h -0.79375 m 1.05834,0 v 9.26041 h 5.02708 v -0.52916 h -4.49792 v -0.26459 l 4.49792,-0.26458 v -0.26458 h -4.49792 v -0.52917 h 4.49792 v -0.52917 h -4.49792 v -1.05833 h 4.23334 v -0.52917 h -4.23334 v -0.52916 h 4.23334 v -0.26459 l -4.23334,-0.26458 v -0.26458 h 4.23334 v -0.52917 h -4.23334 v -1.05833 h 4.49792 v -0.52917 h -4.49792 v -0.52917 h 4.49792 v -0.52916 h -4.49792 v -0.26459 h 4.49792 v -0.52916 h -5.02708 m -92.604165,9.26041 h 0.79375 v -8.20208 c 1.169799,0 3.469784,-0.44603 4.497917,0.13229 1.096142,0.61658 0.927473,2.04889 0,2.68993 -0.907929,0.62754 -2.390354,0.35278 -3.439584,0.35278 v 0.52917 c 0.868514,0 1.782229,0.084 2.645834,0 1.779915,-0.17305 3.178993,-2.50322 1.543402,-3.88056 -0.958548,-0.8072 -2.510262,-0.61736 -3.660069,-0.61736 -0.594577,0 -1.849792,-0.24572 -2.248958,0.30868 -0.366442,0.50895 -0.132292,1.73683 -0.132292,2.33715 v 6.35 m 29.36875,0 h 0.52917 v -8.20208 c 1.220795,0 3.401155,-0.4238 4.497905,0.13229 3.62534,1.8382 -1.79576,3.04271 -3.175,3.04271 v 0.52917 c 0.86452,0 1.78769,0.0954 2.64584,0 1.95927,-0.2177 2.98716,-2.54645 1.32291,-3.92466 -0.98504,-0.81573 -2.52315,-0.57326 -3.70416,-0.57326 -0.55325,0 -1.610195,-0.21101 -1.984375,0.30868 -0.36644,0.50895 -0.13229,1.73683 -0.13229,2.33715 v 6.35 m 25.135415,-8.90764 c -5.82256,0.56609 -4.74104,8.94231 1.05833,8.37848 5.14096,-0.49982 4.11948,-8.88187 -1.05833,-8.37848 m -36.247915,0.44098 v 0.52916 h 6.87917 v -0.52916 h -6.87917 m 21.431245,0 v 8.46666 h 0.52917 v -7.9375 c 1.60018,0 4.44442,-0.54571 5.82083,0.35278 4.02444,2.62707 -1.54748,4.14514 -3.70417,4.14514 v 0.52917 c 1.44937,0 3.23101,0.26397 4.49792,-0.61736 1.60843,-1.11891 1.34073,-3.56978 -0.26458,-4.54202 -1.68906,-1.02295 -4.95991,-0.39687 -6.87917,-0.39687 m 14.02292,0.30868 c 4.46206,-0.86763 6.88565,5.50998 2.38125,7.01146 -4.75794,1.58598 -7.17541,-6.07926 -2.38125,-7.01146 m 14.55208,-0.0441 v 0.52917 l -0.52917,-0.52917 h 0.52917 m -67.204162,0.26458 v 7.9375 h 0.529167 v -7.40833 c 0.708807,0 3.300713,-0.39531 3.527777,0.52917 0.283954,1.1561 -2.654819,0.79375 -3.263194,0.79375 v 0.52916 c 0.846909,0 6.338591,-0.39015 3.395486,-2.24895 -0.890817,-0.56263 -3.144293,-0.1323 -4.189236,-0.1323 m 29.368752,0 v 7.9375 h 0.52916 v -7.40833 h 3.43958 v 1.32292 h -3.175 v 0.52916 c 0.87419,0 2.64479,0.34183 3.39549,-0.13229 0.8567,-0.54107 0.57948,-1.69315 -0.22049,-2.11666 -0.96029,-0.50839 -2.89395,-0.1323 -3.96874,-0.1323 m 23.28333,0.0882 c -3.89169,1.18912 -2.20199,7.3954 1.85208,6.43819 4.357,-1.02874 2.45224,-7.7534 -1.85208,-6.43819 m 8.99583,7.8493 h 0.52917 c 0,-1.64723 -0.62966,-4.88959 0.13229,-6.35 0.72868,-1.39665 2.97547,-1.39666 3.70416,0 0.76196,1.46041 0.1323,4.70277 0.1323,6.35 h 0.52916 c 0,-1.75532 0.73571,-5.70786 -0.35278,-7.14375 -0.92094,-1.21486 -3.81292,-1.11258 -4.54201,0.26459 -0.82285,1.55426 -0.13229,5.11758 -0.13229,6.87916 m 17.99167,-1.5875 -0.26459,0.26459 c 2.01802,2.75184 9.51225,2.15388 8.37847,-2.38125 -0.80509,-3.22037 -5.03443,-0.82647 -5.73263,-3.175 h 4.49791 c -0.92505,-0.96711 -6.36082,-1.30697 -4.89479,1.01423 0.97624,1.54572 4.01569,-0.0418 5.33576,1.89618 0.9147,1.34286 -0.24526,2.79404 -1.4993,3.35139 -2.08189,0.92529 -3.99247,-0.056 -5.82083,-0.97014 m -62.441665,-5.82086 v 0.52917 h 1.85208 v 6.87916 h 0.52917 l -0.26458,-6.87916 h 0.79375 v 0.26458 l -0.26459,6.61458 h 0.52917 v -6.87916 h 0.52917 v 6.87916 h 0.52916 l -0.26458,-6.87916 h 0.79375 v 0.26458 l -0.26458,6.61458 h 0.52916 v -6.87916 h 1.85209 v -0.52917 h -6.87917 m 22.489575,0 v 7.40833 h 0.52917 v -6.87916 c 1.13746,0 3.21872,-0.40486 4.23333,0.13229 3.08692,1.63425 -2.24886,2.24896 -3.175,2.24896 v 0.52916 c 1.01772,0 2.79062,0.34435 3.70417,-0.13229 1.30358,-0.68013 1.30358,-2.49487 0,-3.175 -1.24234,-0.64818 -3.89576,-0.13229 -5.29167,-0.13229 m 13.49375,0.0441 c 3.40602,-0.66228 4.48736,4.36914 1.32292,5.42396 -3.53205,1.17735 -4.97807,-4.71324 -1.32292,-5.42396 m 0.26459,0.30868 c -3.22264,0.44759 -2.44645,5.12433 0.79375,4.6743 2.88489,-0.40068 2.15852,-5.08434 -0.79375,-4.6743 m 8.99583,7.05555 h 0.52917 c 0,-1.15538 -0.71957,-7.73539 1.85208,-6.2177 1.18781,0.701 0.52917,4.95402 0.52917,6.2177 h 0.52916 c 0,-1.56952 0.65529,-4.99361 -0.13229,-6.35 -0.58029,-0.99939 -2.59471,-0.9994 -3.175,0 -0.78758,1.35639 -0.13229,4.78048 -0.13229,6.35 m -21.96042,-6.61458 v 6.61458 h 0.52917 v -6.08541 l 3.43958,0.26458 v 0.26458 h -3.175 v 0.79375 c 0.60945,0 5.57786,-0.3017 3.175,-1.71979 -0.89564,-0.52857 -2.94188,-0.13229 -3.96875,-0.13229 m 12.43542,0.30868 c 2.25515,-0.71903 3.87031,2.48019 1.5875,3.30729 -2.24812,0.81454 -3.83136,-2.59186 -1.5875,-3.30729 m -8.46667,4.18924 0.26459,1.05833 h -0.26459 z"
       id="path70"
       inkscape:export-filename="promise.logo.svg"
       inkscape:export-xdpi="96"
       inkscape:export-ydpi="96" /></g></svg>
